<svg width="18" height="15" viewBox="0 0 18 15" fill="none" xmlns="http://www.w3.org/2000/svg">
<g id="8541713_crown_icon 7" clip-path="url(#clip0_459_1987)">
<path id="Vector" d="M14.5115 12.75H3.07821C2.83635 12.75 2.63846 12.9469 2.63846 13.1875V14.0625C2.63846 14.3031 2.83635 14.5 3.07821 14.5H14.5115C14.7534 14.5 14.9513 14.3031 14.9513 14.0625V13.1875C14.9513 12.9469 14.7534 12.75 14.5115 12.75ZM16.2705 4C15.5422 4 14.9513 4.58789 14.9513 5.3125C14.9513 5.50664 14.9953 5.68711 15.0722 5.85391L13.0824 7.04063C12.6591 7.29219 12.1122 7.15 11.8676 6.72344L9.62764 2.82422C9.92171 2.58359 10.1141 2.22266 10.1141 1.8125C10.1141 1.08789 9.5232 0.5 8.79487 0.5C8.06655 0.5 7.47564 1.08789 7.47564 1.8125C7.47564 2.22266 7.66803 2.58359 7.96211 2.82422L5.72216 6.72344C5.47756 7.15 4.92788 7.29219 4.50737 7.04063L2.52028 5.85391C2.59449 5.68984 2.64121 5.50664 2.64121 5.3125C2.64121 4.58789 2.0503 4 1.32198 4C0.593654 4 0 4.58789 0 5.3125C0 6.03711 0.590905 6.625 1.31923 6.625C1.39069 6.625 1.46215 6.61406 1.53086 6.60313L3.51795 11.875H14.0718L16.0589 6.60313C16.1276 6.61406 16.1991 6.625 16.2705 6.625C16.9988 6.625 17.5897 6.03711 17.5897 5.3125C17.5897 4.58789 16.9988 4 16.2705 4Z" fill="#FDD446"/>
</g>
<defs>
<clipPath id="clip0_459_1987">
<rect width="17.5897" height="14" fill="white" transform="translate(0 0.5)"/>
</clipPath>
</defs>
</svg>
